<?xml version="1.0" encoding="UTF-8" standalone="no"?><svg xmlns="http://www.w3.org/2000/svg" xmlns:xlink="http://www.w3.org/1999/xlink" contentStyleType="text/css" height="642px" preserveAspectRatio="none" style="width:313px;height:642px;background:#FFFFFF;" version="1.1" viewBox="0 0 313 642" width="313px" zoomAndPan="magnify"><defs/><g><!--MD5=[d0961f2b9b6c21d3c13a5f8c6de9d2c8]
cluster edu.utfpr.cp.sa--><g id="cluster_edu.utfpr.cp.sa"><path d="M8.5,6 L112.5,6 A3.75,3.75 0 0 1 115,8.5 L122,28.4883 L303.5,28.4883 A2.5,2.5 0 0 1 306,30.9883 L306,614.5 A2.5,2.5 0 0 1 303.5,617 L8.5,617 A2.5,2.5 0 0 1 6,614.5 L6,8.5 A2.5,2.5 0 0 1 8.5,6 " style="stroke:#000000;stroke-width:1.5;fill:none;"/><line style="stroke:#000000;stroke-width:1.5;fill:none;" x1="6" x2="122" y1="28.4883" y2="28.4883"/><text fill="#000000" font-family="sans-serif" font-size="14" font-weight="bold" lengthAdjust="spacing" textLength="103" x="10" y="21.5352">edu.utfpr.cp.sa</text></g><!--MD5=[782f4cd6615aad46898d3b324c798d30]
class edu.utfpr.cp.sa.AdditionAndSubtractionCalculator--><a href="AdditionAndSubtractionCalculator.html" target="_top" title="AdditionAndSubtractionCalculator.html" xlink:actuate="onRequest" xlink:href="AdditionAndSubtractionCalculator.html" xlink:show="new" xlink:title="AdditionAndSubtractionCalculator.html" xlink:type="simple"><g id="elem_edu.utfpr.cp.sa.AdditionAndSubtractionCalculator"><rect codeLine="3" fill="#F1F1F1" height="64.4883" id="edu.utfpr.cp.sa.AdditionAndSubtractionCalculator" rx="2.5" ry="2.5" style="stroke:#181818;stroke-width:0.5;" width="268" x="22" y="289"/><ellipse cx="37" cy="305" fill="#ADD1B2" rx="11" ry="11" style="stroke:#181818;stroke-width:1.0;"/><path d="M39.4731,311.1431 Q38.8921,311.4419 38.2529,311.5913 Q37.6138,311.7407 36.9082,311.7407 Q34.4014,311.7407 33.0815,310.0889 Q31.7617,308.437 31.7617,305.3159 Q31.7617,302.1865 33.0815,300.5347 Q34.4014,298.8828 36.9082,298.8828 Q37.6138,298.8828 38.2612,299.0322 Q38.9087,299.1816 39.4731,299.4805 L39.4731,302.2031 Q38.8423,301.6221 38.2488,301.3523 Q37.6553,301.0825 37.0244,301.0825 Q35.6797,301.0825 34.9949,302.1492 Q34.3101,303.2158 34.3101,305.3159 Q34.3101,307.4077 34.9949,308.4744 Q35.6797,309.541 37.0244,309.541 Q37.6553,309.541 38.2488,309.2712 Q38.8423,309.0015 39.4731,308.4204 Z " fill="#000000"/><text fill="#000000" font-family="sans-serif" font-size="14" lengthAdjust="spacing" textLength="236" x="51" y="310.291">AdditionAndSubtractionCalculator</text><line style="stroke:#181818;stroke-width:0.5;" x1="23" x2="289" y1="321" y2="321"/><line style="stroke:#181818;stroke-width:0.5;" x1="23" x2="289" y1="329" y2="329"/><ellipse cx="33" cy="340" fill="#84BE84" rx="3" ry="3" style="stroke:#038048;stroke-width:1.0;"/><text fill="#000000" font-family="sans-serif" font-size="14" lengthAdjust="spacing" text-decoration="underline" textLength="132" x="42" y="346.5352">main(String[]): void</text></g></a><!--MD5=[33f6c6f5f8ef2c8853d5ee19bb4f261c]
class edu.utfpr.cp.sa.BaseCalculator--><a href="BaseCalculator.html" target="_top" title="BaseCalculator.html" xlink:actuate="onRequest" xlink:href="BaseCalculator.html" xlink:show="new" xlink:title="BaseCalculator.html" xlink:type="simple"><g id="elem_edu.utfpr.cp.sa.BaseCalculator"><rect codeLine="7" fill="#F1F1F1" height="64.4883" id="edu.utfpr.cp.sa.BaseCalculator" rx="2.5" ry="2.5" style="stroke:#181818;stroke-width:0.5;" width="256" x="28" y="41"/><ellipse cx="101.25" cy="57" fill="#A9DCDF" rx="11" ry="11" style="stroke:#181818;stroke-width:1.0;"/><path d="M101.1133,52.3481 L99.9595,57.4199 L102.2754,57.4199 Z M99.6191,50.1069 L102.6157,50.1069 L105.9609,62.5 L103.5122,62.5 L102.7485,59.437 L99.4697,59.437 L98.7227,62.5 L96.2739,62.5 Z " fill="#000000"/><text fill="#000000" font-family="sans-serif" font-size="14" font-style="italic" lengthAdjust="spacing" textLength="101" x="121.75" y="62.291">BaseCalculator</text><line style="stroke:#181818;stroke-width:0.5;" x1="29" x2="283" y1="73" y2="73"/><line style="stroke:#181818;stroke-width:0.5;" x1="29" x2="283" y1="81" y2="81"/><ellipse cx="39" cy="92" fill="#84BE84" rx="3" ry="3" style="stroke:#038048;stroke-width:1.0;"/><text fill="#000000" font-family="sans-serif" font-size="14" lengthAdjust="spacing" textLength="230" x="48" y="98.5352">chooseAndPerform(String[]): void</text></g></a><!--MD5=[e445803e6d0ddbdc613d9a254cd05dcb]
class edu.utfpr.cp.sa.BasicFourOperationsCalculator--><a href="BasicFourOperationsCalculator.html" target="_top" title="BasicFourOperationsCalculator.html" xlink:actuate="onRequest" xlink:href="BasicFourOperationsCalculator.html" xlink:show="new" xlink:title="BasicFourOperationsCalculator.html" xlink:type="simple"><g id="elem_edu.utfpr.cp.sa.BasicFourOperationsCalculator"><rect codeLine="11" fill="#F1F1F1" height="64.4883" id="edu.utfpr.cp.sa.BasicFourOperationsCalculator" rx="2.5" ry="2.5" style="stroke:#181818;stroke-width:0.5;" width="244" x="34" y="537"/><ellipse cx="49" cy="553" fill="#ADD1B2" rx="11" ry="11" style="stroke:#181818;stroke-width:1.0;"/><path d="M51.4731,559.1431 Q50.8921,559.4419 50.2529,559.5913 Q49.6138,559.7407 48.9082,559.7407 Q46.4014,559.7407 45.0815,558.0889 Q43.7617,556.437 43.7617,553.3159 Q43.7617,550.1865 45.0815,548.5347 Q46.4014,546.8828 48.9082,546.8828 Q49.6138,546.8828 50.2612,547.0322 Q50.9087,547.1816 51.4731,547.4805 L51.4731,550.2031 Q50.8423,549.6221 50.2488,549.3523 Q49.6553,549.0825 49.0244,549.0825 Q47.6797,549.0825 46.9949,550.1492 Q46.3101,551.2158 46.3101,553.3159 Q46.3101,555.4077 46.9949,556.4744 Q47.6797,557.541 49.0244,557.541 Q49.6553,557.541 50.2488,557.2712 Q50.8423,557.0015 51.4731,556.4204 Z " fill="#000000"/><text fill="#000000" font-family="sans-serif" font-size="14" lengthAdjust="spacing" textLength="212" x="63" y="558.291">BasicFourOperationsCalculator</text><line style="stroke:#181818;stroke-width:0.5;" x1="35" x2="277" y1="569" y2="569"/><line style="stroke:#181818;stroke-width:0.5;" x1="35" x2="277" y1="577" y2="577"/><ellipse cx="45" cy="588" fill="#84BE84" rx="3" ry="3" style="stroke:#038048;stroke-width:1.0;"/><text fill="#000000" font-family="sans-serif" font-size="14" lengthAdjust="spacing" text-decoration="underline" textLength="132" x="54" y="594.5352">main(String[]): void</text></g></a><!--MD5=[5214b14eb3b2de48a46b2bc31455c3e6]
class edu.utfpr.cp.sa.OnlyAdditionCalculator--><a href="OnlyAdditionCalculator.html" target="_top" title="OnlyAdditionCalculator.html" xlink:actuate="onRequest" xlink:href="OnlyAdditionCalculator.html" xlink:show="new" xlink:title="OnlyAdditionCalculator.html" xlink:type="simple"><g id="elem_edu.utfpr.cp.sa.OnlyAdditionCalculator"><rect codeLine="15" fill="#F1F1F1" height="64.4883" id="edu.utfpr.cp.sa.OnlyAdditionCalculator" rx="2.5" ry="2.5" style="stroke:#181818;stroke-width:0.5;" width="192" x="60" y="165"/><ellipse cx="75" cy="181" fill="#ADD1B2" rx="11" ry="11" style="stroke:#181818;stroke-width:1.0;"/><path d="M77.4731,187.1431 Q76.8921,187.4419 76.2529,187.5913 Q75.6138,187.7407 74.9082,187.7407 Q72.4014,187.7407 71.0815,186.0889 Q69.7617,184.437 69.7617,181.3159 Q69.7617,178.1865 71.0815,176.5347 Q72.4014,174.8828 74.9082,174.8828 Q75.6138,174.8828 76.2612,175.0322 Q76.9087,175.1816 77.4731,175.4805 L77.4731,178.2031 Q76.8423,177.6221 76.2488,177.3523 Q75.6553,177.0825 75.0244,177.0825 Q73.6797,177.0825 72.9949,178.1492 Q72.3101,179.2158 72.3101,181.3159 Q72.3101,183.4077 72.9949,184.4744 Q73.6797,185.541 75.0244,185.541 Q75.6553,185.541 76.2488,185.2712 Q76.8423,185.0015 77.4731,184.4204 Z " fill="#000000"/><text fill="#000000" font-family="sans-serif" font-size="14" lengthAdjust="spacing" textLength="160" x="89" y="186.291">OnlyAdditionCalculator</text><line style="stroke:#181818;stroke-width:0.5;" x1="61" x2="251" y1="197" y2="197"/><line style="stroke:#181818;stroke-width:0.5;" x1="61" x2="251" y1="205" y2="205"/><ellipse cx="71" cy="216" fill="#84BE84" rx="3" ry="3" style="stroke:#038048;stroke-width:1.0;"/><text fill="#000000" font-family="sans-serif" font-size="14" lengthAdjust="spacing" text-decoration="underline" textLength="132" x="80" y="222.5352">main(String[]): void</text></g></a><!--MD5=[6308d44570bf68fc8bff77e8d34073ed]
class edu.utfpr.cp.sa.ThreeOperationsCalculator--><a href="ThreeOperationsCalculator.html" target="_top" title="ThreeOperationsCalculator.html" xlink:actuate="onRequest" xlink:href="ThreeOperationsCalculator.html" xlink:show="new" xlink:title="ThreeOperationsCalculator.html" xlink:type="simple"><g id="elem_edu.utfpr.cp.sa.ThreeOperationsCalculator"><rect codeLine="19" fill="#F1F1F1" height="64.4883" id="edu.utfpr.cp.sa.ThreeOperationsCalculator" rx="2.5" ry="2.5" style="stroke:#181818;stroke-width:0.5;" width="218" x="47" y="413"/><ellipse cx="62" cy="429" fill="#ADD1B2" rx="11" ry="11" style="stroke:#181818;stroke-width:1.0;"/><path d="M64.4731,435.1431 Q63.8921,435.4419 63.2529,435.5913 Q62.6138,435.7407 61.9082,435.7407 Q59.4014,435.7407 58.0815,434.0889 Q56.7617,432.437 56.7617,429.3159 Q56.7617,426.1865 58.0815,424.5347 Q59.4014,422.8828 61.9082,422.8828 Q62.6138,422.8828 63.2612,423.0322 Q63.9087,423.1816 64.4731,423.4805 L64.4731,426.2031 Q63.8423,425.6221 63.2488,425.3523 Q62.6553,425.0825 62.0244,425.0825 Q60.6797,425.0825 59.9949,426.1492 Q59.3101,427.2158 59.3101,429.3159 Q59.3101,431.4077 59.9949,432.4744 Q60.6797,433.541 62.0244,433.541 Q62.6553,433.541 63.2488,433.2712 Q63.8423,433.0015 64.4731,432.4204 Z " fill="#000000"/><text fill="#000000" font-family="sans-serif" font-size="14" lengthAdjust="spacing" textLength="186" x="76" y="434.291">ThreeOperationsCalculator</text><line style="stroke:#181818;stroke-width:0.5;" x1="48" x2="264" y1="445" y2="445"/><line style="stroke:#181818;stroke-width:0.5;" x1="48" x2="264" y1="453" y2="453"/><ellipse cx="58" cy="464" fill="#84BE84" rx="3" ry="3" style="stroke:#038048;stroke-width:1.0;"/><text fill="#000000" font-family="sans-serif" font-size="14" lengthAdjust="spacing" text-decoration="underline" textLength="132" x="67" y="470.5352">main(String[]): void</text></g></a><!--MD5=[6f724bc366438fd50db51f5bc4cdccf2]
reverse link edu.utfpr.cp.sa.OnlyAdditionCalculator to edu.utfpr.cp.sa.AdditionAndSubtractionCalculator--><g id="link_edu.utfpr.cp.sa.OnlyAdditionCalculator_edu.utfpr.cp.sa.AdditionAndSubtractionCalculator"><path codeLine="23" d="M156,249.34 C156,262.81 156,276.92 156,288.96 " fill="none" id="edu.utfpr.cp.sa.OnlyAdditionCalculator-backto-edu.utfpr.cp.sa.AdditionAndSubtractionCalculator" style="stroke:#181818;stroke-width:1.0;"/><polygon fill="none" points="149,249.1,156,229.1,163,249.1,149,249.1" style="stroke:#181818;stroke-width:1.0;"/></g><!--MD5=[62bdc793bbee208bc0094f6a3f0fd088]
reverse link edu.utfpr.cp.sa.ThreeOperationsCalculator to edu.utfpr.cp.sa.BasicFourOperationsCalculator--><g id="link_edu.utfpr.cp.sa.ThreeOperationsCalculator_edu.utfpr.cp.sa.BasicFourOperationsCalculator"><path codeLine="24" d="M156,497.34 C156,510.81 156,524.92 156,536.96 " fill="none" id="edu.utfpr.cp.sa.ThreeOperationsCalculator-backto-edu.utfpr.cp.sa.BasicFourOperationsCalculator" style="stroke:#181818;stroke-width:1.0;"/><polygon fill="none" points="149,497.1,156,477.1,163,497.1,149,497.1" style="stroke:#181818;stroke-width:1.0;"/></g><!--MD5=[69e3300a57d2635acb7b3e0ebb5b4e8b]
reverse link edu.utfpr.cp.sa.BaseCalculator to edu.utfpr.cp.sa.OnlyAdditionCalculator--><g id="link_edu.utfpr.cp.sa.BaseCalculator_edu.utfpr.cp.sa.OnlyAdditionCalculator"><path codeLine="25" d="M156,125.34 C156,138.81 156,152.92 156,164.96 " fill="none" id="edu.utfpr.cp.sa.BaseCalculator-backto-edu.utfpr.cp.sa.OnlyAdditionCalculator" style="stroke:#181818;stroke-width:1.0;"/><polygon fill="none" points="149,125.1,156,105.1,163,125.1,149,125.1" style="stroke:#181818;stroke-width:1.0;"/></g><!--MD5=[15554fed4c46582e5fadd7c7c2059aae]
reverse link edu.utfpr.cp.sa.AdditionAndSubtractionCalculator to edu.utfpr.cp.sa.ThreeOperationsCalculator--><g id="link_edu.utfpr.cp.sa.AdditionAndSubtractionCalculator_edu.utfpr.cp.sa.ThreeOperationsCalculator"><path codeLine="26" d="M156,373.34 C156,386.81 156,400.92 156,412.96 " fill="none" id="edu.utfpr.cp.sa.AdditionAndSubtractionCalculator-backto-edu.utfpr.cp.sa.ThreeOperationsCalculator" style="stroke:#181818;stroke-width:1.0;"/><polygon fill="none" points="149,373.1,156,353.1,163,373.1,149,373.1" style="stroke:#181818;stroke-width:1.0;"/></g><rect height="11.7773" style="stroke:#00000000;stroke-width:1.0;fill:none;" width="182" x="58.5" y="623"/><text fill="#888888" font-family="sans-serif" font-size="10" lengthAdjust="spacing" textLength="182" x="58.5" y="632.668">UMLDoclet 2.0.18, PlantUML 1.2022.6</text><!--MD5=[db7492302194ed20c1ea47e76a3951b7]
@startuml
    namespace edu.utfpr.cp.sa {

        class AdditionAndSubtractionCalculator [[AdditionAndSubtractionCalculator.html]] {
            {static} +main(String[]): void
        }

        abstract class BaseCalculator [[BaseCalculator.html]] {
            +chooseAndPerform(String[]): void
        }

        class BasicFourOperationsCalculator [[BasicFourOperationsCalculator.html]] {
            {static} +main(String[]): void
        }

        class OnlyAdditionCalculator [[OnlyAdditionCalculator.html]] {
            {static} +main(String[]): void
        }

        class ThreeOperationsCalculator [[ThreeOperationsCalculator.html]] {
            {static} +main(String[]): void
        }

        OnlyAdditionCalculator <|- - AdditionAndSubtractionCalculator
        ThreeOperationsCalculator <|- - BasicFourOperationsCalculator
        BaseCalculator <|- - OnlyAdditionCalculator
        AdditionAndSubtractionCalculator <|- - ThreeOperationsCalculator
    }

    center footer UMLDoclet 2.0.18, PlantUML 1.2022.6
@enduml

PlantUML version 1.2022.6(Tue Jun 21 14:34:49 BRT 2022)
(APACHE source distribution)
Java Runtime: OpenJDK Runtime Environment
JVM: OpenJDK 64-Bit Server VM
Default Encoding: UTF-8
Language: en
Country: GB
--></g></svg>