<?xml version="1.0" encoding="UTF-8" standalone="no"?><svg xmlns="http://www.w3.org/2000/svg" xmlns:xlink="http://www.w3.org/1999/xlink" contentStyleType="text/css" height="642px" preserveAspectRatio="none" style="width:1430px;height:642px;background:#FFFFFF;" version="1.1" viewBox="0 0 1430 642" width="1430px" zoomAndPan="magnify"><defs/><g><!--MD5=[d0961f2b9b6c21d3c13a5f8c6de9d2c8]
cluster edu.utfpr.cp.sa--><g id="cluster_edu.utfpr.cp.sa"><path d="M8.5,6 L112.5,6 A3.75,3.75 0 0 1 115,8.5 L122,28.4883 L1420.5,28.4883 A2.5,2.5 0 0 1 1423,30.9883 L1423,614.5 A2.5,2.5 0 0 1 1420.5,617 L8.5,617 A2.5,2.5 0 0 1 6,614.5 L6,8.5 A2.5,2.5 0 0 1 8.5,6 " style="stroke:#000000;stroke-width:1.5;fill:none;"/><line style="stroke:#000000;stroke-width:1.5;fill:none;" x1="6" x2="122" y1="28.4883" y2="28.4883"/><text fill="#000000" font-family="sans-serif" font-size="14" font-weight="bold" lengthAdjust="spacing" textLength="103" x="10" y="21.5352">edu.utfpr.cp.sa</text></g><!--MD5=[bbd9f865bf83b11f532a443d1d5161d9]
class edu.utfpr.cp.sa.MultiplicationOperation--><a href="MultiplicationOperation.html" target="_top" title="MultiplicationOperation.html" xlink:actuate="onRequest" xlink:href="MultiplicationOperation.html" xlink:show="new" xlink:title="MultiplicationOperation.html" xlink:type="simple"><g id="elem_edu.utfpr.cp.sa.MultiplicationOperation"><rect codeLine="3" fill="#F1F1F1" height="64.4883" id="edu.utfpr.cp.sa.MultiplicationOperation" rx="2.5" ry="2.5" style="stroke:#181818;stroke-width:0.5;" width="263" x="249.5" y="165"/><ellipse cx="295.75" cy="181" fill="#ADD1B2" rx="11" ry="11" style="stroke:#181818;stroke-width:1.0;"/><path d="M298.2231,187.1431 Q297.6421,187.4419 297.0029,187.5913 Q296.3638,187.7407 295.6582,187.7407 Q293.1514,187.7407 291.8315,186.0889 Q290.5117,184.437 290.5117,181.3159 Q290.5117,178.1865 291.8315,176.5347 Q293.1514,174.8828 295.6582,174.8828 Q296.3638,174.8828 297.0112,175.0322 Q297.6587,175.1816 298.2231,175.4805 L298.2231,178.2031 Q297.5923,177.6221 296.9988,177.3523 Q296.4053,177.0825 295.7744,177.0825 Q294.4297,177.0825 293.7449,178.1492 Q293.0601,179.2158 293.0601,181.3159 Q293.0601,183.4077 293.7449,184.4744 Q294.4297,185.541 295.7744,185.541 Q296.4053,185.541 296.9988,185.2712 Q297.5923,185.0015 298.2231,184.4204 Z " fill="#000000"/><text fill="#000000" font-family="sans-serif" font-size="14" lengthAdjust="spacing" textLength="162" x="316.25" y="186.291">MultiplicationOperation</text><line style="stroke:#181818;stroke-width:0.5;" x1="250.5" x2="511.5" y1="197" y2="197"/><line style="stroke:#181818;stroke-width:0.5;" x1="250.5" x2="511.5" y1="205" y2="205"/><ellipse cx="260.5" cy="216" fill="#84BE84" rx="3" ry="3" style="stroke:#038048;stroke-width:1.0;"/><text fill="#000000" font-family="sans-serif" font-size="14" lengthAdjust="spacing" textLength="237" x="269.5" y="222.5352">calculates(double, double): double</text></g></a><!--MD5=[c276c3e352dc3b2c721b8d06034cd0d1]
class edu.utfpr.cp.sa.DivisionOperation--><a href="DivisionOperation.html" target="_top" title="DivisionOperation.html" xlink:actuate="onRequest" xlink:href="DivisionOperation.html" xlink:show="new" xlink:title="DivisionOperation.html" xlink:type="simple"><g id="elem_edu.utfpr.cp.sa.DivisionOperation"><rect codeLine="7" fill="#F1F1F1" height="64.4883" id="edu.utfpr.cp.sa.DivisionOperation" rx="2.5" ry="2.5" style="stroke:#181818;stroke-width:0.5;" width="263" x="547.5" y="165"/><ellipse cx="613.25" cy="181" fill="#ADD1B2" rx="11" ry="11" style="stroke:#181818;stroke-width:1.0;"/><path d="M615.7231,187.1431 Q615.1421,187.4419 614.5029,187.5913 Q613.8638,187.7407 613.1582,187.7407 Q610.6514,187.7407 609.3315,186.0889 Q608.0117,184.437 608.0117,181.3159 Q608.0117,178.1865 609.3315,176.5347 Q610.6514,174.8828 613.1582,174.8828 Q613.8638,174.8828 614.5112,175.0322 Q615.1587,175.1816 615.7231,175.4805 L615.7231,178.2031 Q615.0923,177.6221 614.4988,177.3523 Q613.9053,177.0825 613.2744,177.0825 Q611.9297,177.0825 611.2449,178.1492 Q610.5601,179.2158 610.5601,181.3159 Q610.5601,183.4077 611.2449,184.4744 Q611.9297,185.541 613.2744,185.541 Q613.9053,185.541 614.4988,185.2712 Q615.0923,185.0015 615.7231,184.4204 Z " fill="#000000"/><text fill="#000000" font-family="sans-serif" font-size="14" lengthAdjust="spacing" textLength="123" x="633.75" y="186.291">DivisionOperation</text><line style="stroke:#181818;stroke-width:0.5;" x1="548.5" x2="809.5" y1="197" y2="197"/><line style="stroke:#181818;stroke-width:0.5;" x1="548.5" x2="809.5" y1="205" y2="205"/><ellipse cx="558.5" cy="216" fill="#84BE84" rx="3" ry="3" style="stroke:#038048;stroke-width:1.0;"/><text fill="#000000" font-family="sans-serif" font-size="14" lengthAdjust="spacing" textLength="237" x="567.5" y="222.5352">calculates(double, double): double</text></g></a><!--MD5=[ef41425912988715b394ce547a24d935]
class edu.utfpr.cp.sa.SubtractionOperation--><a href="SubtractionOperation.html" target="_top" title="SubtractionOperation.html" xlink:actuate="onRequest" xlink:href="SubtractionOperation.html" xlink:show="new" xlink:title="SubtractionOperation.html" xlink:type="simple"><g id="elem_edu.utfpr.cp.sa.SubtractionOperation"><rect codeLine="11" fill="#F1F1F1" height="64.4883" id="edu.utfpr.cp.sa.SubtractionOperation" rx="2.5" ry="2.5" style="stroke:#181818;stroke-width:0.5;" width="263" x="845.5" y="165"/><ellipse cx="898.75" cy="181" fill="#ADD1B2" rx="11" ry="11" style="stroke:#181818;stroke-width:1.0;"/><path d="M901.2231,187.1431 Q900.6421,187.4419 900.0029,187.5913 Q899.3638,187.7407 898.6582,187.7407 Q896.1514,187.7407 894.8315,186.0889 Q893.5117,184.437 893.5117,181.3159 Q893.5117,178.1865 894.8315,176.5347 Q896.1514,174.8828 898.6582,174.8828 Q899.3638,174.8828 900.0112,175.0322 Q900.6587,175.1816 901.2231,175.4805 L901.2231,178.2031 Q900.5923,177.6221 899.9988,177.3523 Q899.4053,177.0825 898.7744,177.0825 Q897.4297,177.0825 896.7449,178.1492 Q896.0601,179.2158 896.0601,181.3159 Q896.0601,183.4077 896.7449,184.4744 Q897.4297,185.541 898.7744,185.541 Q899.4053,185.541 899.9988,185.2712 Q900.5923,185.0015 901.2231,184.4204 Z " fill="#000000"/><text fill="#000000" font-family="sans-serif" font-size="14" lengthAdjust="spacing" textLength="148" x="919.25" y="186.291">SubtractionOperation</text><line style="stroke:#181818;stroke-width:0.5;" x1="846.5" x2="1107.5" y1="197" y2="197"/><line style="stroke:#181818;stroke-width:0.5;" x1="846.5" x2="1107.5" y1="205" y2="205"/><ellipse cx="856.5" cy="216" fill="#84BE84" rx="3" ry="3" style="stroke:#038048;stroke-width:1.0;"/><text fill="#000000" font-family="sans-serif" font-size="14" lengthAdjust="spacing" textLength="237" x="865.5" y="222.5352">calculates(double, double): double</text></g></a><!--MD5=[41be23e0b1516e3c3ddfc84350c3124c]
class edu.utfpr.cp.sa.IOperation--><a href="IOperation.html" target="_top" title="IOperation.html" xlink:actuate="onRequest" xlink:href="IOperation.html" xlink:show="new" xlink:title="IOperation.html" xlink:type="simple"><g id="elem_edu.utfpr.cp.sa.IOperation"><rect codeLine="15" fill="#F1F1F1" height="64.4883" id="edu.utfpr.cp.sa.IOperation" rx="2.5" ry="2.5" style="stroke:#181818;stroke-width:0.5;" width="263" x="696.5" y="41"/><ellipse cx="787.25" cy="57" fill="#B4A7E5" rx="11" ry="11" style="stroke:#181818;stroke-width:1.0;"/><path d="M783.6777,53.2651 L783.6777,51.1069 L791.0571,51.1069 L791.0571,53.2651 L788.5918,53.2651 L788.5918,61.3418 L791.0571,61.3418 L791.0571,63.5 L783.6777,63.5 L783.6777,61.3418 L786.1431,61.3418 L786.1431,53.2651 Z " fill="#000000"/><text fill="#000000" font-family="sans-serif" font-size="14" font-style="italic" lengthAdjust="spacing" textLength="73" x="807.75" y="62.291">IOperation</text><line style="stroke:#181818;stroke-width:0.5;" x1="697.5" x2="958.5" y1="73" y2="73"/><line style="stroke:#181818;stroke-width:0.5;" x1="697.5" x2="958.5" y1="81" y2="81"/><ellipse cx="707.5" cy="92" fill="#84BE84" rx="3" ry="3" style="stroke:#038048;stroke-width:1.0;"/><text fill="#000000" font-family="sans-serif" font-size="14" font-style="italic" lengthAdjust="spacing" textLength="237" x="716.5" y="98.5352">calculates(double, double): double</text></g></a><!--MD5=[782f4cd6615aad46898d3b324c798d30]
class edu.utfpr.cp.sa.AdditionAndSubtractionCalculator--><a href="AdditionAndSubtractionCalculator.html" target="_top" title="AdditionAndSubtractionCalculator.html" xlink:actuate="onRequest" xlink:href="AdditionAndSubtractionCalculator.html" xlink:show="new" xlink:title="AdditionAndSubtractionCalculator.html" xlink:type="simple"><g id="elem_edu.utfpr.cp.sa.AdditionAndSubtractionCalculator"><rect codeLine="19" fill="#F1F1F1" height="64.4883" id="edu.utfpr.cp.sa.AdditionAndSubtractionCalculator" rx="2.5" ry="2.5" style="stroke:#181818;stroke-width:0.5;" width="268" x="22" y="289"/><ellipse cx="37" cy="305" fill="#ADD1B2" rx="11" ry="11" style="stroke:#181818;stroke-width:1.0;"/><path d="M39.4731,311.1431 Q38.8921,311.4419 38.2529,311.5913 Q37.6138,311.7407 36.9082,311.7407 Q34.4014,311.7407 33.0815,310.0889 Q31.7617,308.437 31.7617,305.3159 Q31.7617,302.1865 33.0815,300.5347 Q34.4014,298.8828 36.9082,298.8828 Q37.6138,298.8828 38.2612,299.0322 Q38.9087,299.1816 39.4731,299.4805 L39.4731,302.2031 Q38.8423,301.6221 38.2488,301.3523 Q37.6553,301.0825 37.0244,301.0825 Q35.6797,301.0825 34.9949,302.1492 Q34.3101,303.2158 34.3101,305.3159 Q34.3101,307.4077 34.9949,308.4744 Q35.6797,309.541 37.0244,309.541 Q37.6553,309.541 38.2488,309.2712 Q38.8423,309.0015 39.4731,308.4204 Z " fill="#000000"/><text fill="#000000" font-family="sans-serif" font-size="14" lengthAdjust="spacing" textLength="236" x="51" y="310.291">AdditionAndSubtractionCalculator</text><line style="stroke:#181818;stroke-width:0.5;" x1="23" x2="289" y1="321" y2="321"/><line style="stroke:#181818;stroke-width:0.5;" x1="23" x2="289" y1="329" y2="329"/><ellipse cx="33" cy="340" fill="#84BE84" rx="3" ry="3" style="stroke:#038048;stroke-width:1.0;"/><text fill="#000000" font-family="sans-serif" font-size="14" lengthAdjust="spacing" text-decoration="underline" textLength="132" x="42" y="346.5352">main(String[]): void</text></g></a><!--MD5=[33f6c6f5f8ef2c8853d5ee19bb4f261c]
class edu.utfpr.cp.sa.BaseCalculator--><a href="BaseCalculator.html" target="_top" title="BaseCalculator.html" xlink:actuate="onRequest" xlink:href="BaseCalculator.html" xlink:show="new" xlink:title="BaseCalculator.html" xlink:type="simple"><g id="elem_edu.utfpr.cp.sa.BaseCalculator"><rect codeLine="23" fill="#F1F1F1" height="64.4883" id="edu.utfpr.cp.sa.BaseCalculator" rx="2.5" ry="2.5" style="stroke:#181818;stroke-width:0.5;" width="256" x="22" y="41"/><ellipse cx="95.25" cy="57" fill="#A9DCDF" rx="11" ry="11" style="stroke:#181818;stroke-width:1.0;"/><path d="M95.1133,52.3481 L93.9595,57.4199 L96.2754,57.4199 Z M93.6191,50.1069 L96.6157,50.1069 L99.9609,62.5 L97.5122,62.5 L96.7485,59.437 L93.4697,59.437 L92.7227,62.5 L90.2739,62.5 Z " fill="#000000"/><text fill="#000000" font-family="sans-serif" font-size="14" font-style="italic" lengthAdjust="spacing" textLength="101" x="115.75" y="62.291">BaseCalculator</text><line style="stroke:#181818;stroke-width:0.5;" x1="23" x2="277" y1="73" y2="73"/><line style="stroke:#181818;stroke-width:0.5;" x1="23" x2="277" y1="81" y2="81"/><ellipse cx="33" cy="92" fill="#84BE84" rx="3" ry="3" style="stroke:#038048;stroke-width:1.0;"/><text fill="#000000" font-family="sans-serif" font-size="14" lengthAdjust="spacing" textLength="230" x="42" y="98.5352">chooseAndPerform(String[]): void</text></g></a><!--MD5=[e445803e6d0ddbdc613d9a254cd05dcb]
class edu.utfpr.cp.sa.BasicFourOperationsCalculator--><a href="BasicFourOperationsCalculator.html" target="_top" title="BasicFourOperationsCalculator.html" xlink:actuate="onRequest" xlink:href="BasicFourOperationsCalculator.html" xlink:show="new" xlink:title="BasicFourOperationsCalculator.html" xlink:type="simple"><g id="elem_edu.utfpr.cp.sa.BasicFourOperationsCalculator"><rect codeLine="27" fill="#F1F1F1" height="64.4883" id="edu.utfpr.cp.sa.BasicFourOperationsCalculator" rx="2.5" ry="2.5" style="stroke:#181818;stroke-width:0.5;" width="244" x="34" y="537"/><ellipse cx="49" cy="553" fill="#ADD1B2" rx="11" ry="11" style="stroke:#181818;stroke-width:1.0;"/><path d="M51.4731,559.1431 Q50.8921,559.4419 50.2529,559.5913 Q49.6138,559.7407 48.9082,559.7407 Q46.4014,559.7407 45.0815,558.0889 Q43.7617,556.437 43.7617,553.3159 Q43.7617,550.1865 45.0815,548.5347 Q46.4014,546.8828 48.9082,546.8828 Q49.6138,546.8828 50.2612,547.0322 Q50.9087,547.1816 51.4731,547.4805 L51.4731,550.2031 Q50.8423,549.6221 50.2488,549.3523 Q49.6553,549.0825 49.0244,549.0825 Q47.6797,549.0825 46.9949,550.1492 Q46.3101,551.2158 46.3101,553.3159 Q46.3101,555.4077 46.9949,556.4744 Q47.6797,557.541 49.0244,557.541 Q49.6553,557.541 50.2488,557.2712 Q50.8423,557.0015 51.4731,556.4204 Z " fill="#000000"/><text fill="#000000" font-family="sans-serif" font-size="14" lengthAdjust="spacing" textLength="212" x="63" y="558.291">BasicFourOperationsCalculator</text><line style="stroke:#181818;stroke-width:0.5;" x1="35" x2="277" y1="569" y2="569"/><line style="stroke:#181818;stroke-width:0.5;" x1="35" x2="277" y1="577" y2="577"/><ellipse cx="45" cy="588" fill="#84BE84" rx="3" ry="3" style="stroke:#038048;stroke-width:1.0;"/><text fill="#000000" font-family="sans-serif" font-size="14" lengthAdjust="spacing" text-decoration="underline" textLength="132" x="54" y="594.5352">main(String[]): void</text></g></a><!--MD5=[c6764f6e87051ce20bb77eb87cacd31c]
class edu.utfpr.cp.sa.AdditionOperation--><a href="AdditionOperation.html" target="_top" title="AdditionOperation.html" xlink:actuate="onRequest" xlink:href="AdditionOperation.html" xlink:show="new" xlink:title="AdditionOperation.html" xlink:type="simple"><g id="elem_edu.utfpr.cp.sa.AdditionOperation"><rect codeLine="31" fill="#F1F1F1" height="64.4883" id="edu.utfpr.cp.sa.AdditionOperation" rx="2.5" ry="2.5" style="stroke:#181818;stroke-width:0.5;" width="263" x="1143.5" y="165"/><ellipse cx="1206.75" cy="181" fill="#ADD1B2" rx="11" ry="11" style="stroke:#181818;stroke-width:1.0;"/><path d="M1209.2231,187.1431 Q1208.6421,187.4419 1208.0029,187.5913 Q1207.3638,187.7407 1206.6582,187.7407 Q1204.1514,187.7407 1202.8315,186.0889 Q1201.5117,184.437 1201.5117,181.3159 Q1201.5117,178.1865 1202.8315,176.5347 Q1204.1514,174.8828 1206.6582,174.8828 Q1207.3638,174.8828 1208.0112,175.0322 Q1208.6587,175.1816 1209.2231,175.4805 L1209.2231,178.2031 Q1208.5923,177.6221 1207.9988,177.3523 Q1207.4053,177.0825 1206.7744,177.0825 Q1205.4297,177.0825 1204.7449,178.1492 Q1204.0601,179.2158 1204.0601,181.3159 Q1204.0601,183.4077 1204.7449,184.4744 Q1205.4297,185.541 1206.7744,185.541 Q1207.4053,185.541 1207.9988,185.2712 Q1208.5923,185.0015 1209.2231,184.4204 Z " fill="#000000"/><text fill="#000000" font-family="sans-serif" font-size="14" lengthAdjust="spacing" textLength="128" x="1227.25" y="186.291">AdditionOperation</text><line style="stroke:#181818;stroke-width:0.5;" x1="1144.5" x2="1405.5" y1="197" y2="197"/><line style="stroke:#181818;stroke-width:0.5;" x1="1144.5" x2="1405.5" y1="205" y2="205"/><ellipse cx="1154.5" cy="216" fill="#84BE84" rx="3" ry="3" style="stroke:#038048;stroke-width:1.0;"/><text fill="#000000" font-family="sans-serif" font-size="14" lengthAdjust="spacing" textLength="237" x="1163.5" y="222.5352">calculates(double, double): double</text></g></a><!--MD5=[5214b14eb3b2de48a46b2bc31455c3e6]
class edu.utfpr.cp.sa.OnlyAdditionCalculator--><a href="OnlyAdditionCalculator.html" target="_top" title="OnlyAdditionCalculator.html" xlink:actuate="onRequest" xlink:href="OnlyAdditionCalculator.html" xlink:show="new" xlink:title="OnlyAdditionCalculator.html" xlink:type="simple"><g id="elem_edu.utfpr.cp.sa.OnlyAdditionCalculator"><rect codeLine="35" fill="#F1F1F1" height="64.4883" id="edu.utfpr.cp.sa.OnlyAdditionCalculator" rx="2.5" ry="2.5" style="stroke:#181818;stroke-width:0.5;" width="192" x="22" y="165"/><ellipse cx="37" cy="181" fill="#ADD1B2" rx="11" ry="11" style="stroke:#181818;stroke-width:1.0;"/><path d="M39.4731,187.1431 Q38.8921,187.4419 38.2529,187.5913 Q37.6138,187.7407 36.9082,187.7407 Q34.4014,187.7407 33.0815,186.0889 Q31.7617,184.437 31.7617,181.3159 Q31.7617,178.1865 33.0815,176.5347 Q34.4014,174.8828 36.9082,174.8828 Q37.6138,174.8828 38.2612,175.0322 Q38.9087,175.1816 39.4731,175.4805 L39.4731,178.2031 Q38.8423,177.6221 38.2488,177.3523 Q37.6553,177.0825 37.0244,177.0825 Q35.6797,177.0825 34.9949,178.1492 Q34.3101,179.2158 34.3101,181.3159 Q34.3101,183.4077 34.9949,184.4744 Q35.6797,185.541 37.0244,185.541 Q37.6553,185.541 38.2488,185.2712 Q38.8423,185.0015 39.4731,184.4204 Z " fill="#000000"/><text fill="#000000" font-family="sans-serif" font-size="14" lengthAdjust="spacing" textLength="160" x="51" y="186.291">OnlyAdditionCalculator</text><line style="stroke:#181818;stroke-width:0.5;" x1="23" x2="213" y1="197" y2="197"/><line style="stroke:#181818;stroke-width:0.5;" x1="23" x2="213" y1="205" y2="205"/><ellipse cx="33" cy="216" fill="#84BE84" rx="3" ry="3" style="stroke:#038048;stroke-width:1.0;"/><text fill="#000000" font-family="sans-serif" font-size="14" lengthAdjust="spacing" text-decoration="underline" textLength="132" x="42" y="222.5352">main(String[]): void</text></g></a><!--MD5=[6308d44570bf68fc8bff77e8d34073ed]
class edu.utfpr.cp.sa.ThreeOperationsCalculator--><a href="ThreeOperationsCalculator.html" target="_top" title="ThreeOperationsCalculator.html" xlink:actuate="onRequest" xlink:href="ThreeOperationsCalculator.html" xlink:show="new" xlink:title="ThreeOperationsCalculator.html" xlink:type="simple"><g id="elem_edu.utfpr.cp.sa.ThreeOperationsCalculator"><rect codeLine="39" fill="#F1F1F1" height="64.4883" id="edu.utfpr.cp.sa.ThreeOperationsCalculator" rx="2.5" ry="2.5" style="stroke:#181818;stroke-width:0.5;" width="218" x="47" y="413"/><ellipse cx="62" cy="429" fill="#ADD1B2" rx="11" ry="11" style="stroke:#181818;stroke-width:1.0;"/><path d="M64.4731,435.1431 Q63.8921,435.4419 63.2529,435.5913 Q62.6138,435.7407 61.9082,435.7407 Q59.4014,435.7407 58.0815,434.0889 Q56.7617,432.437 56.7617,429.3159 Q56.7617,426.1865 58.0815,424.5347 Q59.4014,422.8828 61.9082,422.8828 Q62.6138,422.8828 63.2612,423.0322 Q63.9087,423.1816 64.4731,423.4805 L64.4731,426.2031 Q63.8423,425.6221 63.2488,425.3523 Q62.6553,425.0825 62.0244,425.0825 Q60.6797,425.0825 59.9949,426.1492 Q59.3101,427.2158 59.3101,429.3159 Q59.3101,431.4077 59.9949,432.4744 Q60.6797,433.541 62.0244,433.541 Q62.6553,433.541 63.2488,433.2712 Q63.8423,433.0015 64.4731,432.4204 Z " fill="#000000"/><text fill="#000000" font-family="sans-serif" font-size="14" lengthAdjust="spacing" textLength="186" x="76" y="434.291">ThreeOperationsCalculator</text><line style="stroke:#181818;stroke-width:0.5;" x1="48" x2="264" y1="445" y2="445"/><line style="stroke:#181818;stroke-width:0.5;" x1="48" x2="264" y1="453" y2="453"/><ellipse cx="58" cy="464" fill="#84BE84" rx="3" ry="3" style="stroke:#038048;stroke-width:1.0;"/><text fill="#000000" font-family="sans-serif" font-size="14" lengthAdjust="spacing" text-decoration="underline" textLength="132" x="67" y="470.5352">main(String[]): void</text></g></a><!--MD5=[ad39c39114791307e21bdef730a309b1]
reverse link edu.utfpr.cp.sa.IOperation to edu.utfpr.cp.sa.MultiplicationOperation--><g id="link_edu.utfpr.cp.sa.IOperation_edu.utfpr.cp.sa.MultiplicationOperation"><path codeLine="43" d="M694.99,110.3 C631.32,127.68 555.87,148.27 494.89,164.92 " fill="none" id="edu.utfpr.cp.sa.IOperation-backto-edu.utfpr.cp.sa.MultiplicationOperation" style="stroke:#181818;stroke-width:1.0;stroke-dasharray:7.0,7.0;"/><polygon fill="none" points="693.2,103.54,714.34,105.02,696.88,117.04,693.2,103.54" style="stroke:#181818;stroke-width:1.0;"/></g><!--MD5=[ac15835d6b2fca035e8f86059566662a]
reverse link edu.utfpr.cp.sa.IOperation to edu.utfpr.cp.sa.DivisionOperation--><g id="link_edu.utfpr.cp.sa.IOperation_edu.utfpr.cp.sa.DivisionOperation"><path codeLine="44" d="M774.3,117.97 C755.3,133.53 734.33,150.69 716.92,164.96 " fill="none" id="edu.utfpr.cp.sa.IOperation-backto-edu.utfpr.cp.sa.DivisionOperation" style="stroke:#181818;stroke-width:1.0;stroke-dasharray:7.0,7.0;"/><polygon fill="none" points="770.11,112.36,790.02,105.1,778.98,123.19,770.11,112.36" style="stroke:#181818;stroke-width:1.0;"/></g><!--MD5=[aa2a9075de47da88aad2914db0cb6920]
reverse link edu.utfpr.cp.sa.IOperation to edu.utfpr.cp.sa.SubtractionOperation--><g id="link_edu.utfpr.cp.sa.IOperation_edu.utfpr.cp.sa.SubtractionOperation"><path codeLine="45" d="M881.7,117.97 C900.7,133.53 921.67,150.69 939.08,164.96 " fill="none" id="edu.utfpr.cp.sa.IOperation-backto-edu.utfpr.cp.sa.SubtractionOperation" style="stroke:#181818;stroke-width:1.0;stroke-dasharray:7.0,7.0;"/><polygon fill="none" points="877.02,123.19,865.98,105.1,885.89,112.36,877.02,123.19" style="stroke:#181818;stroke-width:1.0;"/></g><!--MD5=[6f724bc366438fd50db51f5bc4cdccf2]
reverse link edu.utfpr.cp.sa.OnlyAdditionCalculator to edu.utfpr.cp.sa.AdditionAndSubtractionCalculator--><g id="link_edu.utfpr.cp.sa.OnlyAdditionCalculator_edu.utfpr.cp.sa.AdditionAndSubtractionCalculator"><path codeLine="46" d="M133.69,248.38 C137.98,262.13 142.49,276.63 146.33,288.96 " fill="none" id="edu.utfpr.cp.sa.OnlyAdditionCalculator-backto-edu.utfpr.cp.sa.AdditionAndSubtractionCalculator" style="stroke:#181818;stroke-width:1.0;"/><polygon fill="none" points="126.95,250.28,127.69,229.1,140.32,246.11,126.95,250.28" style="stroke:#181818;stroke-width:1.0;"/></g><!--MD5=[62bdc793bbee208bc0094f6a3f0fd088]
reverse link edu.utfpr.cp.sa.ThreeOperationsCalculator to edu.utfpr.cp.sa.BasicFourOperationsCalculator--><g id="link_edu.utfpr.cp.sa.ThreeOperationsCalculator_edu.utfpr.cp.sa.BasicFourOperationsCalculator"><path codeLine="47" d="M156,497.34 C156,510.81 156,524.92 156,536.96 " fill="none" id="edu.utfpr.cp.sa.ThreeOperationsCalculator-backto-edu.utfpr.cp.sa.BasicFourOperationsCalculator" style="stroke:#181818;stroke-width:1.0;"/><polygon fill="none" points="149,497.1,156,477.1,163,497.1,149,497.1" style="stroke:#181818;stroke-width:1.0;"/></g><!--MD5=[169287eab8b6b289a9ac4c139c10d3f5]
reverse link edu.utfpr.cp.sa.IOperation to edu.utfpr.cp.sa.AdditionOperation--><g id="link_edu.utfpr.cp.sa.IOperation_edu.utfpr.cp.sa.AdditionOperation"><path codeLine="48" d="M961.01,110.3 C1024.68,127.68 1100.13,148.27 1161.11,164.92 " fill="none" id="edu.utfpr.cp.sa.IOperation-backto-edu.utfpr.cp.sa.AdditionOperation" style="stroke:#181818;stroke-width:1.0;stroke-dasharray:7.0,7.0;"/><polygon fill="none" points="959.12,117.04,941.66,105.02,962.8,103.54,959.12,117.04" style="stroke:#181818;stroke-width:1.0;"/></g><!--MD5=[69e3300a57d2635acb7b3e0ebb5b4e8b]
reverse link edu.utfpr.cp.sa.BaseCalculator to edu.utfpr.cp.sa.OnlyAdditionCalculator--><g id="link_edu.utfpr.cp.sa.BaseCalculator_edu.utfpr.cp.sa.OnlyAdditionCalculator"><path codeLine="49" d="M136.66,124.86 C133.09,138.47 129.34,152.77 126.14,164.96 " fill="none" id="edu.utfpr.cp.sa.BaseCalculator-backto-edu.utfpr.cp.sa.OnlyAdditionCalculator" style="stroke:#181818;stroke-width:1.0;"/><polygon fill="none" points="130,122.67,141.84,105.1,143.54,126.22,130,122.67" style="stroke:#181818;stroke-width:1.0;"/></g><!--MD5=[15554fed4c46582e5fadd7c7c2059aae]
reverse link edu.utfpr.cp.sa.AdditionAndSubtractionCalculator to edu.utfpr.cp.sa.ThreeOperationsCalculator--><g id="link_edu.utfpr.cp.sa.AdditionAndSubtractionCalculator_edu.utfpr.cp.sa.ThreeOperationsCalculator"><path codeLine="50" d="M156,373.34 C156,386.81 156,400.92 156,412.96 " fill="none" id="edu.utfpr.cp.sa.AdditionAndSubtractionCalculator-backto-edu.utfpr.cp.sa.ThreeOperationsCalculator" style="stroke:#181818;stroke-width:1.0;"/><polygon fill="none" points="149,373.1,156,353.1,163,373.1,149,373.1" style="stroke:#181818;stroke-width:1.0;"/></g><rect height="11.7773" style="stroke:#00000000;stroke-width:1.0;fill:none;" width="182" x="617" y="623"/><text fill="#888888" font-family="sans-serif" font-size="10" lengthAdjust="spacing" textLength="182" x="617" y="632.668">UMLDoclet 2.0.18, PlantUML 1.2022.6</text><!--MD5=[6edc121a150a0b73dbf326a8eb0b5566]
@startuml
    namespace edu.utfpr.cp.sa {

        class MultiplicationOperation [[MultiplicationOperation.html]] {
            +calculates(double, double): double
        }

        class DivisionOperation [[DivisionOperation.html]] {
            +calculates(double, double): double
        }

        class SubtractionOperation [[SubtractionOperation.html]] {
            +calculates(double, double): double
        }

        interface IOperation [[IOperation.html]] {
            {abstract} +calculates(double, double): double
        }

        class AdditionAndSubtractionCalculator [[AdditionAndSubtractionCalculator.html]] {
            {static} +main(String[]): void
        }

        abstract class BaseCalculator [[BaseCalculator.html]] {
            +chooseAndPerform(String[]): void
        }

        class BasicFourOperationsCalculator [[BasicFourOperationsCalculator.html]] {
            {static} +main(String[]): void
        }

        class AdditionOperation [[AdditionOperation.html]] {
            +calculates(double, double): double
        }

        class OnlyAdditionCalculator [[OnlyAdditionCalculator.html]] {
            {static} +main(String[]): void
        }

        class ThreeOperationsCalculator [[ThreeOperationsCalculator.html]] {
            {static} +main(String[]): void
        }

        IOperation <|.. MultiplicationOperation
        IOperation <|.. DivisionOperation
        IOperation <|.. SubtractionOperation
        OnlyAdditionCalculator <|- - AdditionAndSubtractionCalculator
        ThreeOperationsCalculator <|- - BasicFourOperationsCalculator
        IOperation <|.. AdditionOperation
        BaseCalculator <|- - OnlyAdditionCalculator
        AdditionAndSubtractionCalculator <|- - ThreeOperationsCalculator
    }

    center footer UMLDoclet 2.0.18, PlantUML 1.2022.6
@enduml

PlantUML version 1.2022.6(Tue Jun 21 14:34:49 BRT 2022)
(APACHE source distribution)
Java Runtime: OpenJDK Runtime Environment
JVM: OpenJDK 64-Bit Server VM
Default Encoding: UTF-8
Language: en
Country: GB
--></g></svg>